<?xml version="1.0" encoding="UTF-8"?>
<svg xmlns="http://www.w3.org/2000/svg" viewBox="0 0 500 500" role="img" aria-label="War Thunder Discord RPC logo">
  <title>War Thunder Discord RPC logo</title>
  <g fill="#E0E3FF">
    <path d="M 250.5 51 L 266 79.5 L 279 99.5 Q 280.7 101.3 280 105.5 L 278 109.5 L 276 119.5 L 274 122.5 L 272 132.5 L 268 142.5 L 268 145.5 L 260 169.5 L 260 172.5 L 257 179.5 L 256 186 L 226.5 184 L 214 171.5 L 192 148.5 L 191 145.5 L 220 103.5 L 250.5 51 Z "/>
    <path d="M 284.5 110 L 288 113.5 L 302 135.5 L 327 169.5 L 328 172.5 L 328 177.5 L 330 182.5 L 330 188.5 L 332 194.5 L 332 199.5 L 334 205.5 L 335 217 L 319.5 217 L 318.5 216 L 296.5 216 L 295.5 215 L 276.5 215 L 275.5 214 L 263 214 Q 262 210.6 264 209.5 L 264 205.5 L 266 200.5 L 266 196.5 L 268 191.5 L 268 186.5 L 270 181.5 L 270 176.5 L 272 171.5 L 272 166.5 L 275 157.5 L 276 147.5 L 278 142.5 L 278 137.5 L 280 132.5 L 280 128.5 L 282 123.5 L 282 118.5 L 283 117.5 L 284.5 110 Z "/>
    <path d="M 138.5 214 L 140.5 214 L 150.5 224 L 152 224 Q 150.9 226.7 153.5 226 L 186.5 258 L 188 258 Q 186.9 260.7 189.5 260 L 193 264.5 L 191.5 266 L 184.5 266 L 183.5 267 Q 178.7 265.8 177.5 268 L 168.5 268 L 167.5 269 L 160.5 269 L 159.5 270 L 150.5 270 L 144.5 272 L 125.5 273 L 104 250.5 L 128 225.5 L 128 224 Q 130.7 225.1 130 222.5 L 138.5 214 Z "/>
    <path d="M 385.5 241 L 387.5 241 L 396 249.5 L 396 251.5 L 379.5 268 Q 376.9 268.8 378 265.5 L 377 264.5 L 377 260.5 L 376 259.5 L 375 250.5 L 374 249.5 L 377.5 246 L 385.5 241 Z "/>
    <path d="M 252.5 317 L 266.5 317 L 268.5 318 L 312 351.5 L 280 398.5 L 268 418.5 L 266 423.5 L 262 428.5 L 262 430.5 L 257 437.5 L 250.5 450 L 248 447.5 L 248 445.5 L 241 434.5 L 237 425.5 L 233 420.5 L 231 415.5 L 218 395.5 L 218 392.5 L 232 352.5 L 232 349.5 L 234 346.5 L 240 328.5 L 240 325.5 L 242 322.5 L 243 318 L 251.5 318 L 252.5 317 Z "/>
    <path d="M 294.5 325 L 297.5 326 L 303.5 326 L 309.5 328 L 315.5 328 L 316.5 329 L 325.5 330 L 327 331.5 L 314.5 348 L 296 328.5 L 294 325.5 L 294.5 325 Z "/>
    <path d="M 198.5 334 L 225.5 334 Q 226.6 334.1 226 339.5 L 225 340.5 L 224 348.5 L 223 349.5 L 223 353.5 L 222 354.5 L 222 358.5 L 220 363.5 L 220 368.5 L 218 373.5 L 218 378.5 L 216 383.5 L 216 387.5 L 214.5 389 L 177 335.5 L 197.5 335 L 198.5 334 Z "/>
  </g>
  <g fill="#5865F2">
    <path d="M 121.5 135 L 131.5 135 L 143.5 139 L 180.5 159 Q 229.1 190.4 271.5 228 L 276.5 229 L 300.5 221 L 302 225 L 293.5 228 L 281 235.5 L 291.5 244 L 293.5 244 L 328.5 228 L 345.5 222 L 353 221.5 L 339 193.5 L 334 177 Q 336.7 175.9 336 178.5 Q 350.9 198.6 361.5 223 L 363.5 223 Q 375.3 221.3 380 226.5 Q 378.7 230.7 383.5 229 L 386 230 Q 386.8 233.8 383.5 235 L 380.5 237 L 374 238 L 368 245.5 L 370 249.5 L 370 287.5 L 369 289.5 Q 369.8 291.8 373.5 291 L 382 288 Q 383.5 291.8 380.5 291 L 366 298.5 Q 381.3 307.2 393 319.5 Q 395.6 320.9 395 325.5 L 387.5 330 L 368.5 331 L 367.5 330 L 346.5 329 L 318.5 324 L 279.5 314 L 266.5 308 L 246.5 308 L 239.5 310 L 233.5 310 L 232.5 311 L 208 314 Q 209.5 320.3 205.5 322 Q 200.8 320.8 199.5 323 L 198.5 322 L 186.5 321 L 181.5 319 L 164.5 323 L 153.5 323 Q 148.3 320.3 150 310.5 L 151 306 L 146.5 306 L 128.5 297 L 118 288.5 L 119.5 285 Q 124.9 281.4 135.5 283 L 154.5 287 Q 157.7 278.2 164.5 273 Q 170.3 272.2 172 275.5 L 178.5 293 L 216 274.5 Q 190.3 253.7 168 229.5 Q 146.3 205.2 128 177.5 L 117 156.5 L 115 149.5 L 115 142.5 L 119.5 136 L 121.5 135 Z M 127 140 L 123 143 Q 122 148 125 151 L 126 146 Q 129 141 135 141 L 127 140 Z M 124 158 L 127 169 L 139 188 L 143 191 L 148 192 L 146 185 L 143 182 Q 131 172 124 158 Z M 140 166 Q 138 171 141 174 L 149 182 L 153 193 L 160 199 L 171 201 L 173 201 L 140 166 Z M 206 181 L 213 188 L 214 188 L 206 181 Z M 215 188 L 219 193 L 235 206 Q 237 207 236 204 L 215 188 Z M 147 196 L 155 209 L 164 209 L 152 196 L 147 196 Z M 175 203 L 174 204 L 165 205 L 186 223 Q 190 227 199 225 Q 200 227 201 225 L 175 203 Z M 164 212 L 160 213 L 167 223 L 179 234 L 189 236 L 195 236 L 168 212 L 164 212 Z M 247 215 L 247 217 L 266 233 L 267 235 L 268 241 L 276 243 L 288 254 L 291 253 L 280 242 L 280 240 L 278 241 L 273 240 Q 268 239 269 233 L 247 215 Z M 349 225 L 342 228 Q 338 227 340 233 L 334 237 Q 321 247 316 264 L 317 268 L 341 255 L 355 243 Q 352 236 353 226 L 349 225 Z M 362 225 L 362 227 Q 361 230 356 229 Q 354 237 360 240 L 370 235 L 375 229 L 372 226 L 362 225 Z M 205 228 L 204 229 L 193 230 L 236 262 Q 236 252 241 246 L 233 244 L 205 228 Z M 333 229 L 330 230 L 332 233 Q 337 234 338 232 L 333 229 Z M 324 233 L 322 235 L 324 237 L 328 236 Q 330 237 329 235 Q 328 232 324 233 Z M 313 237 L 316 241 L 318 240 Q 322 241 321 239 Q 319 235 313 237 Z M 185 239 L 188 243 L 200 240 L 200 239 L 190 239 L 189 240 L 185 239 Z M 325 240 L 317 244 Q 311 246 310 243 L 306 243 L 298 246 L 305 254 L 321 246 L 326 241 L 325 240 Z M 202 242 L 190 246 L 206 260 L 223 265 L 226 264 Q 230 266 229 262 L 204 242 L 202 242 Z M 254 246 L 249 248 L 243 257 L 244 262 L 245 257 Q 247 251 254 250 Q 258 249 260 251 L 262 251 Q 259 247 254 246 Z M 316 251 L 309 257 L 313 261 L 317 253 Q 318 250 316 251 Z M 295 257 L 293 259 L 303 265 L 310 273 L 310 270 Q 305 261 295 257 Z M 358 258 Q 349 269 337 275 L 335 278 L 359 294 L 365 293 L 361 282 L 359 271 L 359 263 L 358 258 Z M 228 267 L 218 271 L 229 279 L 230 274 L 230 267 L 228 267 Z M 261 268 Q 249 271 241 276 L 236 281 L 240 282 L 253 278 L 260 278 L 278 288 L 281 288 L 270 281 L 264 276 L 264 274 L 264 272 Q 266 266 261 268 Z M 165 277 L 159 286 L 160 288 L 168 282 L 169 280 Q 168 276 165 277 Z M 219 278 L 203 285 Q 196 289 194 298 L 194 299 L 216 292 L 228 291 Q 225 283 219 278 Z M 331 280 L 330 281 Q 326 280 327 283 L 351 298 L 357 306 Q 362 308 364 305 L 367 306 L 368 306 L 365 303 Q 363 306 359 305 Q 355 303 355 299 L 331 280 Z M 169 284 L 163 289 L 170 291 L 171 292 L 170 289 Q 172 283 169 284 Z M 192 290 L 181 295 L 178 299 L 173 303 L 173 304 L 186 301 L 191 294 Q 190 291 193 292 Q 194 289 192 290 Z M 279 305 L 273 307 L 279 309 L 291 309 L 286 305 L 279 305 Z M 298 312 L 293 314 L 297 315 Q 304 317 303 313 L 298 312 Z M 309 317 L 309 318 L 313 319 L 317 319 Q 314 316 309 317 Z "/>
    <path d="M 385.5 240 L 387.5 240 L 397 249.5 L 397 251.5 L 378.5 270 L 378 268 L 379.5 268 L 396 251.5 L 396 249.5 L 387.5 241 L 384.5 242 L 385.5 240 Z "/>
    <path d="M 212.5 333 L 226.5 333 Q 227.5 333 227 337.5 L 226 337.5 L 225.5 334 L 212.5 334 L 212.5 333 Z "/>
  </g>
</svg>
